# xmcd
#
# Track frame offsets: 
#        150
#        11887
#        24207
#        36957
#        55805
#        66700
#        78687
#        89662
#        103212
#        116037
#        127602
#        141337
#        153837
#        167000
#        181737
#        196495
#        210462
#        223472
#        236807
#        247777
#
# Disc length: 3478 seconds
#
# Revision: 2
# Processed by: cddbd v1.4PL0 Copyright (c) Steve Scherf et al.
# Submitted via: ExactAudioCopy v0.95a1
#
DISCID=220d9414
DTITLE=Bill Monroe and His Blue Grass Boys - The Essential Bill Monroe
DTITLE=: 1945-1949 (Disk 1)
DYEAR=1900
DGENRE=Bluegrass
TTITLE0=Rocky Road Blues
TTITLE1=Kentucky Waltz
TTITLE2=True Life Blues
TTITLE3=Nobody Loves Me
TTITLE4=Goodbye Old Pal
TTITLE5=Footprints in the Snow
TTITLE6=Blue Grass Special
TTITLE7=Come Back to Me in My Dreams
TTITLE8=Heavy Traffic Ahead
TTITLE9=Why Did You Wander
TTITLE10=Blue Moon of Kentucky
TTITLE11=Toy Heart
TTITLE12=Summertime Is Past and Gone
TTITLE13=Mansions for Me
TTITLE14=Mother's Only Sleeping
TTITLE15=Blue Yodel No. 4
TTITLE16=Will You Be Loving Another Man?
TTITLE17=How Will I Explain About You?
TTITLE18=Shining Path
TTITLE19=Wicked Path of Sin
EXTD=
EXTT0=Bill Monroe\n
EXTT1=Bill Monroe\n
EXTT2=Bill Monroe\n
EXTT3=Zeke Clements\n
EXTT4=Bill Monroe\n
EXTT5=
EXTT6=Bill Monroe\n
EXTT7=Bill Monroe\n
EXTT8=Bill Monroe\n
EXTT9=Bill Monroe\n
EXTT10=Bill Monroe\n
EXTT11=Bill Monroe\n
EXTT12=Bill Monroe\n
EXTT13=Bill Monroe\n
EXTT14=Bill Monroe\n
EXTT15=Jimmy Rodgers\n
EXTT16=Bill Monroe, Lester Flatt\n
EXTT17=Bill Monroe\n
EXTT18=Bill Monroe\n
EXTT19=Bill Monroe\n
PLAYORDER=
